Coordinates
version=1
nRows=14
nColumns=24
inDegrees=yes

Units are S.I. units (second, meters, Newtons, ...)
Angles are in degrees.

endheader
time	pelvis_tilt	pelvis_list	pelvis_rotation	pelvis_tx	pelvis_ty	pelvis_tz	hip_flexion_r	hip_adduction_r	hip_rotation_r	knee_angle_r	ankle_angle_r	subtalar_angle_r	mtp_angle_r	hip_flexion_l	hip_adduction_l	hip_rotation_l	knee_angle_l	ankle_angle_l	subtalar_angle_l	mtp_angle_l	lumbar_extension	lumbar_bending	lumbar_rotation
      4.16000000	     -7.72443533	      2.07558022	     -7.76798409	     -1.27349702	     -0.04767859	      0.61871585	     -7.60243986	     -2.30775910	      0.64572764	    -14.28622730	     14.48068686	      0.40875503	      2.84850876	     38.64379466	     -4.05024895	    -30.41986396	    -18.46939202	      2.11194798	     20.77853638	    -14.36803899	      4.81361247	     -1.06481095	     12.96224045
      4.16500000	     -7.80504326	      2.38730257	     -7.97296771	     -1.26593273	     -0.04889328	      0.61844088	     -7.69468803	     -2.77112362	      0.87463577	    -14.80640419	     14.31359357	      0.45572325	      3.13304804	     38.69744542	     -3.92799468	    -30.79254986	    -19.01777539	      1.68376386	     20.49586412	    -14.09490083	      5.04134371	     -1.40467245	     13.13395011
      4.17000000	     -7.87663893	      2.73935588	     -8.07870421	     -1.25827606	     -0.05007193	      0.61804789	     -7.77359560	     -3.29362915	      0.77987450	    -15.37606485	     14.14209318	      0.74823386	      3.59374272	     38.73769017	     -3.70450070	    -31.10489276	    -19.49331318	      0.68799240	     20.05413506	    -12.31307575	      5.27221793	     -1.80886618	     13.16314210
      4.17500000	     -7.97509470	      3.07737517	     -8.23038478	     -1.25069383	     -0.05119982	      0.61769326	     -7.78689007	     -3.78943271	      0.90139749	    -16.00889307	     13.88577526	      0.92374433	      3.75225653	     38.82561967	     -3.52267025	    -31.28044277	    -20.05934831	     -0.25202376	     19.43489230	    -11.02116705	      5.52179366	     -2.18761390	     13.26589371
      4.18000000	     -8.05131798	      3.43875973	     -8.40233562	     -1.24311683	     -0.05223727	      0.61729925	     -7.79188137	     -4.32732265	      1.10134987	    -16.67813028	     13.59680711	      1.19180740	      3.98704182	     38.91246578	     -3.32687295	    -31.38854062	    -20.72378384	     -1.05600715	     18.70473887	    -10.34385647	      5.74562562	     -2.58218658	     13.37426627
      4.18500000	     -8.13504241	      3.83385027	     -8.49889751	     -1.23547229	     -0.05321663	      0.61687064	     -7.77092588	     -4.89591419	      1.16047126	    -17.38733430	     13.23882090	      1.47127352	      4.30384232	     39.03406188	     -3.06124409	    -31.38942074	    -21.42554668	     -1.96523292	     17.85013235	     -9.50329902	      5.99380799	     -3.03642010	     13.41001209
      4.19000000	     -8.20937242	      4.23473393	     -8.58033026	     -1.22778772	     -0.05408447	      0.61638716	     -7.73216294	     -5.47597036	      1.26246905	    -18.14451272	     12.75513738	      1.76180934	      4.66219590	     39.15876426	     -2.77784893	    -31.32734681	    -22.17409843	     -2.78892932	     16.93613471	     -8.81143906	      6.23395848	     -3.48907627	     13.40757700
      4.19500000	     -8.27833808	      4.67166725	     -8.66517990	     -1.22005381	     -0.05483823	      0.61603251	     -7.65836865	     -6.07340372	      1.43682653	    -18.97249314	     12.13902580	      1.85602852	      4.87269506	     39.28941286	     -2.48984629	    -31.27825552	    -23.00514337	     -3.39641205	     16.15852788	     -8.61301700	      6.48832078	     -4.00616138	     13.40579081
      4.20000000	     -8.34454800	      5.06229558	     -8.61029240	     -1.21238744	     -0.05557151	      0.61531565	     -7.55430728	     -6.66854151	      1.25642419	    -19.87905806	     11.53392618	      2.42538370	      5.56624299	     39.46155779	     -2.10804928	    -30.92640641	    -23.83333284	     -4.10796931	     15.02455350	     -7.97428991	      6.69895456	     -4.46685277	     13.25235767
      4.20500000	     -8.35661798	      5.45631820	     -8.72077821	     -1.20478458	     -0.05607133	      0.61493616	     -7.42976331	     -7.23956230	      1.52221612	    -20.87551241	     10.73033933	      2.60769119	      5.85862382	     39.55105713	     -1.84835705	    -30.74037292	    -24.72546489	     -4.48934509	     14.14180991	     -7.87325709	      6.86291909	     -4.93151055	     13.31636635
      4.21000000	     -8.42183351	      5.84534265	     -8.60548184	     -1.19706899	     -0.05658965	      0.61416951	     -7.24675786	     -7.83855918	      1.30622881	    -21.92840000	      9.88049854	      3.19717623	      6.69560987	     39.71258295	     -1.41807982	    -30.29961727	    -25.57991830	     -4.89944858	     13.14907618	     -7.59267382	      7.07527259	     -5.40497734	     13.09405846
      4.21500000	     -8.44417578	      6.21849627	     -8.55416741	     -1.18940440	     -0.05693091	      0.61352971	     -7.04477421	     -8.41345620	      1.28286224	    -23.06553076	      8.86792693	      3.60430025	      7.45405656	     39.79392614	     -1.03570576	    -29.93647437	    -26.41921050	     -5.12160109	     12.31536050	     -7.43481342	      7.23752567	     -5.86282670	     12.97298819
      4.22000000	     -8.44835218	      6.55051211	     -8.52733208	     -1.18186590	     -0.05713591	      0.61291622	     -6.78784782	     -8.94147947	      1.37137112	    -24.31994680	      7.75737913	      4.02341163	      8.00807195	     39.82481735	     -0.68577130	    -29.55493737	    -27.21759367	     -5.21465753	     11.58928061	     -7.35104154	      7.35652830	     -6.27721455	     12.88242435
      4.22500000	     -8.47954133	      6.87244537	     -8.37069126	     -1.17425151	     -0.05732179	      0.61209876	     -6.47534994	     -9.48082863	      1.17663438	    -25.65525299	      6.56018630	      4.60287450	      8.76673710	     39.85647773	     -0.25054434	    -29.15439065	    -27.96043930	     -5.22904013	     10.95378818	     -7.18182991	      7.49855542	     -6.68723190	     12.64818256
